<?xml version="1.0" encoding="utf-8"?>
<!-- Generator: Adobe Illustrator 16.0.0, SVG Export Plug-In . SVG Version: 6.00 Build 0)  -->
<!DOCTYPE svg PUBLIC "-//W3C//DTD SVG 1.1//EN" "http://www.w3.org/Graphics/SVG/1.1/DTD/svg11.dtd">
<svg version="1.1" id="Capa_1" xmlns="http://www.w3.org/2000/svg" xmlns:xlink="http://www.w3.org/1999/xlink" x="0px" y="0px"
	 width="609.5px" height="701.379px" viewBox="-97.5 -189.379 609.5 701.379" enable-background="new -97.5 -189.379 609.5 701.379"
	 xml:space="preserve">
<g>
	<path fill="#303131" d="M187.828,54.911c-5.741,0-10.419-4.679-10.419-10.419c0-5.752,4.678-10.419,10.419-10.419
		c5.751,0,10.419,4.667,10.419,10.419C198.247,50.232,193.579,54.911,187.828,54.911z M264.502,175.193
		c0.094,0.133,0.186,0.269,0.273,0.407C264.711,175.499,264.625,175.359,264.502,175.193z M247.497,175.193
		c-0.122,0.166-0.209,0.305-0.274,0.407C247.312,175.462,247.403,175.327,247.497,175.193z M347.98,34.073L323.048,9.141
		c-12.118-12.118-32.063-12.143-44.204,0l-24.932,24.932h-19.198c-6.838,0-12.168,6.621-9.881,13.811
		c1.35,4.244,5.428,7.028,9.881,7.028h0.01h148.389c5.73,0.01,10.409,4.688,10.419,10.419v381.34
		c-0.01,5.73-4.688,10.409-10.419,10.419H128.887c-5.73-0.01-10.409-4.688-10.419-10.419V65.33
		c0.01-5.73,4.688-10.409,10.419-10.419h12.724c5.541,0,10.391-4.168,10.769-9.696c0.413-6.066-4.415-11.142-10.395-11.142h-13.097
		c-17.263,0-31.257,13.994-31.257,31.257v125.026l-88.49,88.487c-12.187,12.188-12.187,32.018,0,44.205l88.489,88.488v35.133
		c0,17.264,13.994,31.258,31.257,31.258h35.133l24.932,24.932c12.118,12.118,32.063,12.143,44.204,0l24.932-24.932h125.025
		c17.264,0,31.258-13.994,31.258-31.258V321.644l88.488-88.487c12.188-12.188,12.188-32.017,0-44.206l-88.488-88.49V65.33
		c0-17.264-13.994-31.257-31.258-31.257H347.98z M293.578,23.876c4.063-4.063,10.673-4.062,14.735,0l10.196,10.196h-35.129
		L293.578,23.876z M97.629,323.129l-22.183-22.182l22.183-22.182V323.129z M97.629,249.294l-44.285,44.284
		c-4.068,4.069-4.068,10.666,0,14.736l44.285,44.284v29.468l-73.754-73.753c-4.063-4.062-4.063-10.673,0-14.735l73.754-73.752
		V249.294z M218.42,488.123c-4.062,4.063-10.672,4.062-14.735,0l-10.196-10.195h35.128L218.42,488.123z M414.371,188.872
		l22.182,22.181l-22.182,22.182V188.872z M488.125,218.42l-73.754,73.753v-29.469l44.284-44.285c4.068-4.069,4.068-10.666,0-14.736
		L414.371,159.4v-29.469l73.754,73.754C492.187,207.748,492.187,214.359,488.125,218.42z"/>
</g>
<g>
	<path fill="#B14E17" d="M170.477-29.322c-1.399,0.809-2.926,1.191-4.432,1.191c-3.069,0-6.055-1.592-7.697-4.439L99.243-134.951
		c-2.454-4.247-0.997-9.678,3.249-12.129c4.247-2.451,9.68-0.994,12.128,3.249L173.725-41.45
		C176.176-37.204,174.725-31.773,170.477-29.322z"/>
	<path fill="#B14E17" d="M45.847,74.296c-1.506,0-3.032-0.384-4.431-1.193L-52.08,2.159c-4.246-2.451-5.703-7.883-3.249-12.128
		c2.448-4.246,7.877-5.706,12.128-3.249l93.496,70.944c4.246,2.451,5.703,7.882,3.249,12.128
		C51.9,72.704,48.917,74.296,45.847,74.296z"/>
	<path fill="#B14E17" d="M-86.754,208.869h79.737c4.905,0,8.88,3.974,8.88,8.879c0,4.906-3.975,8.88-8.88,8.88h-79.737
		c-4.905,0-8.88-3.974-8.88-8.88C-95.634,212.843-91.659,208.869-86.754,208.869z"/>
	<path fill="#B14E17" d="M300.62-51.405c-4.905,0-8.88-3.977-8.88-8.879V-178.5c0-4.902,3.975-8.879,8.88-8.879
		s8.88,3.978,8.88,8.879v118.215C309.5-55.382,305.525-51.405,300.62-51.405z"/>
</g>
</svg>
